<svg width="44" height="44" viewBox="0 0 44 44" fill="none" xmlns="http://www.w3.org/2000/svg">
<path d="M24.2529 38.1279H37.0652C33.5526 41.4473 29.0497 43.5111 24.2529 44V38.1279ZM6.93287 38.1279H19.7476V44C14.9497 43.5123 10.4457 41.4484 6.93287 38.1279ZM24.2529 33.6107V28.3599H43.0872C42.5377 30.2067 41.7475 31.9723 40.737 33.6107H24.2529ZM3.25795 33.6107C2.25124 31.9712 1.46347 30.2059 0.914856 28.3599H19.7491V33.6107H3.25795Z" fill="#65C4FF"/>
<path d="M24.2523 23.842V20.5248L37.9123 6.82483C41.8243 10.9198 44.0062 16.3785 44 22.0555C44 22.6539 43.9734 23.2508 43.9264 23.8397L24.2523 23.842ZM0.0720217 23.842C0.0250183 23.2531 1.32316e-05 22.657 1.32316e-05 22.0578C-0.00619813 16.3813 2.17468 10.9228 6.08535 6.82714L19.7478 20.5273V23.8444L0.0720217 23.842ZM9.52522 3.88877C13.1937 1.34864 17.5452 -0.00781247 22 3.38484e-05C26.4547 -0.00721336 30.8059 1.34919 34.4747 3.88877L22 16.3952L9.52522 3.88877Z" fill="#1866ED"/>
</svg>
